<svg xmlns="http://www.w3.org/2000/svg" viewBox="0 0 190 104" width="190" height="104"><path fill="#fff" fill-rule="evenodd" d="M12,29 L14,31 L24,31 L25,32 L28,32 L34,35 L38,39 L40,49 L39,50 L39,54 L34,63 L34,71 L38,74 L42,72 L44,68 L45,61 L52,48 L52,46 L54,42 L59,37 L61,37 L62,36 L70,36 L77,39 L86,49 L86,51 L87,52 L87,58 L88,59 L88,65 L93,78 L93,83 L95,88 L99,91 L105,91 L106,90 L108,90 L111,85 L111,83 L106,70 L104,52 L100,42 L100,37 L101,36 L101,34 L105,30 L110,28 L114,28 L115,29 L121,30 L127,33 L139,33 L140,32 L162,32 L163,31 L166,31 L171,28 L177,22 L177,20 L171,17 L165,17 L164,16 L79,15 L78,14 L60,13 L59,12 L47,12 L39,19 L32,23 L25,24 L24,25 L13,25 L12,26 Z"/></svg>